STARTFONT 2.3
FONT -FontForge-Tangerine-Book-R-Normal--12-120-72-72-P-45-ISO10646-1
SIZE 12 72 72  2
FONTBOUNDINGBOX 20 14 -4 -4
COMMENT "Generated by fontforge, http://fontforge.sourceforge.net"
COMMENT "Copyright (c) 2010 by Toshi Omagari. All rights reserved."
STARTPROPERTIES 40
FOUNDRY "FontForge"
FAMILY_NAME "Tangerine"
WEIGHT_NAME "Book"
SLANT "R"
SETWIDTH_NAME "Normal"
ADD_STYLE_NAME ""
PIXEL_SIZE 12
POINT_SIZE 120
RESOLUTION_X 72
RESOLUTION_Y 72
SPACING "P"
AVERAGE_WIDTH 45
CHARSET_REGISTRY "ISO10646"
CHARSET_ENCODING "1"
FONTNAME_REGISTRY ""
CHARSET_COLLECTIONS "ISO10646-1"
BITS_PER_PIXEL 2
FONT_NAME "Tangerine-Regular"
FACE_NAME "Tangerine Regular"
COPYRIGHT "Copyright (c) 2010 by Toshi Omagari. All rights reserved."
FONT_VERSION "1.3"
FONT_ASCENT 9
FONT_DESCENT 3
UNDERLINE_POSITION -1
UNDERLINE_THICKNESS 1
X_HEIGHT 2
CAP_HEIGHT 7
RAW_ASCENT 750
RAW_DESCENT 250
NORM_SPACE 2
RELATIVE_WEIGHT 40
RELATIVE_SETWIDTH 50
SUPERSCRIPT_X 0
SUPERSCRIPT_Y 5
SUPERSCRIPT_SIZE 7
SUBSCRIPT_X 0
SUBSCRIPT_Y 1
SUBSCRIPT_SIZE 7
AVG_LOWERCASE_WIDTH 29
AVG_UPPERCASE_WIDTH 86
ENDPROPERTIES
CHARS 233
STARTCHAR space
ENCODING 32
SWIDTH 150 0
DWIDTH 2 0
BBX 1 1 0 0
BITMAP
00
ENDCHAR
STARTCHAR exclam
ENCODING 33
SWIDTH 189 0
DWIDTH 2 0
BBX 4 7 0 0
BITMAP
01
05
04
04
10
00
50
ENDCHAR
STARTCHAR quotedbl
ENCODING 34
SWIDTH 214 0
DWIDTH 3 0
BBX 2 1 1 4
BITMAP
50
ENDCHAR
STARTCHAR numbersign
ENCODING 35
SWIDTH 289 0
DWIDTH 3 0
BBX 4 4 0 0
BITMAP
14
3E
74
40
ENDCHAR
STARTCHAR dollar
ENCODING 36
SWIDTH 269 0
DWIDTH 3 0
BBX 3 4 0 0
BITMAP
18
20
04
54
ENDCHAR
STARTCHAR percent
ENCODING 37
SWIDTH 388 0
DWIDTH 5 0
BBX 5 5 0 -1
BITMAP
6100
4500
0540
1500
4000
ENDCHAR
STARTCHAR ampersand
ENCODING 38
SWIDTH 507 0
DWIDTH 6 0
BBX 6 6 0 0
BITMAP
0900
0500
1000
5450
4500
5650
ENDCHAR
STARTCHAR quotesingle
ENCODING 39
SWIDTH 120 0
DWIDTH 1 0
BBX 1 1 1 4
BITMAP
40
ENDCHAR
STARTCHAR parenleft
ENCODING 40
SWIDTH 250 0
DWIDTH 3 0
BBX 3 9 1 -1
BITMAP
04
10
10
50
40
40
40
40
40
ENDCHAR
STARTCHAR parenright
ENCODING 41
SWIDTH 276 0
DWIDTH 3 0
BBX 2 8 1 -1
BITMAP
10
10
10
10
10
10
40
40
ENDCHAR
STARTCHAR asterisk
ENCODING 42
SWIDTH 188 0
DWIDTH 2 0
BBX 1 2 1 3
BITMAP
40
40
ENDCHAR
STARTCHAR plus
ENCODING 43
SWIDTH 301 0
DWIDTH 4 0
BBX 4 3 0 0
BITMAP
04
7D
10
ENDCHAR
STARTCHAR comma
ENCODING 44
SWIDTH 112 0
DWIDTH 1 0
BBX 1 2 0 -1
BITMAP
40
40
ENDCHAR
STARTCHAR hyphen
ENCODING 45
SWIDTH 245 0
DWIDTH 3 0
BBX 1 1 2 2
BITMAP
00
ENDCHAR
STARTCHAR period
ENCODING 46
SWIDTH 112 0
DWIDTH 1 0
BBX 1 1 0 0
BITMAP
40
ENDCHAR
STARTCHAR slash
ENCODING 47
SWIDTH 210 0
DWIDTH 3 0
BBX 4 7 0 0
BITMAP
01
01
04
00
10
00
40
ENDCHAR
STARTCHAR zero
ENCODING 48
SWIDTH 349 0
DWIDTH 4 0
BBX 4 4 0 0
BITMAP
1A
11
41
24
ENDCHAR
STARTCHAR one
ENCODING 49
SWIDTH 189 0
DWIDTH 2 0
BBX 3 4 0 0
BITMAP
38
10
10
40
ENDCHAR
STARTCHAR two
ENCODING 50
SWIDTH 277 0
DWIDTH 3 0
BBX 3 4 0 0
BITMAP
18
04
04
64
ENDCHAR
STARTCHAR three
ENCODING 51
SWIDTH 253 0
DWIDTH 3 0
BBX 4 6 -1 -2
BITMAP
02
06
00
02
45
78
ENDCHAR
STARTCHAR four
ENCODING 52
SWIDTH 363 0
DWIDTH 4 0
BBX 5 6 0 0
BITMAP
0040
0140
0100
1100
5F00
0400
ENDCHAR
STARTCHAR five
ENCODING 53
SWIDTH 250 0
DWIDTH 3 0
BBX 5 6 -1 -2
BITMAP
0640
0400
0C00
0500
0500
B400
ENDCHAR
STARTCHAR six
ENCODING 54
SWIDTH 296 0
DWIDTH 4 0
BBX 5 6 0 0
BITMAP
02C0
0800
2000
1100
4100
6400
ENDCHAR
STARTCHAR seven
ENCODING 55
SWIDTH 326 0
DWIDTH 4 0
BBX 5 6 0 -2
BITMAP
2F40
1000
0000
0000
1000
4000
ENDCHAR
STARTCHAR eight
ENCODING 56
SWIDTH 305 0
DWIDTH 4 0
BBX 5 6 0 0
BITMAP
0500
0540
0900
1500
4100
5400
ENDCHAR
STARTCHAR nine
ENCODING 57
SWIDTH 304 0
DWIDTH 4 0
BBX 5 6 -1 -2
BITMAP
0140
0080
1540
1E00
0500
7800
ENDCHAR
STARTCHAR colon
ENCODING 58
SWIDTH 156 0
DWIDTH 2 0
BBX 2 3 0 0
BITMAP
10
00
40
ENDCHAR
STARTCHAR semicolon
ENCODING 59
SWIDTH 156 0
DWIDTH 2 0
BBX 2 4 0 -1
BITMAP
10
00
40
40
ENDCHAR
STARTCHAR less
ENCODING 60
SWIDTH 301 0
DWIDTH 4 0
BBX 2 3 1 0
BITMAP
50
40
10
ENDCHAR
STARTCHAR equal
ENCODING 61
SWIDTH 301 0
DWIDTH 4 0
BBX 4 3 0 0
BITMAP
3D
00
7C
ENDCHAR
STARTCHAR greater
ENCODING 62
SWIDTH 301 0
DWIDTH 4 0
BBX 3 3 0 0
BITMAP
14
18
50
ENDCHAR
STARTCHAR question
ENCODING 63
SWIDTH 285 0
DWIDTH 3 0
BBX 5 7 0 0
BITMAP
0100
0580
0040
0500
1000
0000
5000
ENDCHAR
STARTCHAR at
ENCODING 64
SWIDTH 492 0
DWIDTH 6 0
BBX 6 7 0 -2
BITMAP
0B80
2450
5110
4610
5A80
2040
0500
ENDCHAR
STARTCHAR A
ENCODING 65
SWIDTH 996 0
DWIDTH 12 0
BBX 12 8 0 0
BITMAP
000155
000006
000014
000044
000BF4
000104
401004
254009
ENDCHAR
STARTCHAR B
ENCODING 66
SWIDTH 638 0
DWIDTH 8 0
BBX 8 8 0 0
BITMAP
0069
0042
0041
0154
0105
0101
5401
1554
ENDCHAR
STARTCHAR C
ENCODING 67
SWIDTH 557 0
DWIDTH 7 0
BBX 7 8 1 0
BITMAP
0554
1000
4000
4000
4000
8000
8010
1540
ENDCHAR
STARTCHAR D
ENCODING 68
SWIDTH 799 0
DWIDTH 10 0
BBX 10 8 0 0
BITMAP
015900
000A00
001080
001050
005010
004010
154000
555500
ENDCHAR
STARTCHAR E
ENCODING 69
SWIDTH 494 0
DWIDTH 6 0
BBX 7 8 0 0
BITMAP
0154
0100
0100
0B40
2400
5000
5000
1540
ENDCHAR
STARTCHAR F
ENCODING 70
SWIDTH 626 0
DWIDTH 8 0
BBX 10 8 0 0
BITMAP
0056D0
000200
000500
000400
00FE00
000400
401000
254000
ENDCHAR
STARTCHAR G
ENCODING 71
SWIDTH 571 0
DWIDTH 7 0
BBX 10 10 -1 -2
BITMAP
000BC0
002450
008000
014000
020000
020100
004500
400400
501000
154000
ENDCHAR
STARTCHAR H
ENCODING 72
SWIDTH 865 0
DWIDTH 10 0
BBX 14 9 0 0
BITMAP
00000050
00550110
00040400
00101000
00151000
0BFFE000
24105000
40004000
40005000
ENDCHAR
STARTCHAR I
ENCODING 73
SWIDTH 554 0
DWIDTH 7 0
BBX 9 8 0 0
BITMAP
000640
001500
005100
004400
000400
100000
509000
2E4000
ENDCHAR
STARTCHAR J
ENCODING 74
SWIDTH 634 0
DWIDTH 8 0
BBX 10 10 0 -2
BITMAP
000190
000540
001440
001100
000100
000100
400800
402000
819000
7E0000
ENDCHAR
STARTCHAR K
ENCODING 75
SWIDTH 936 0
DWIDTH 11 0
BBX 12 8 0 0
BITMAP
005606
010400
010400
000500
000500
101100
401040
250054
ENDCHAR
STARTCHAR L
ENCODING 76
SWIDTH 657 0
DWIDTH 8 0
BBX 9 8 0 0
BITMAP
000740
001440
001000
004000
008000
154000
AF4100
51B800
ENDCHAR
STARTCHAR M
ENCODING 77
SWIDTH 1219 0
DWIDTH 15 0
BBX 16 8 0 0
BITMAP
00055405
00000814
00001450
00001110
10005550
40011440
50142040
29505060
ENDCHAR
STARTCHAR N
ENCODING 78
SWIDTH 990 0
DWIDTH 12 0
BBX 16 8 0 0
BITMAP
00590019
00024040
00019040
00012100
00041500
40040900
50100900
29400400
ENDCHAR
STARTCHAR O
ENCODING 79
SWIDTH 606 0
DWIDTH 7 0
BBX 7 8 1 0
BITMAP
07E0
2424
4008
4004
4004
8010
9050
6E40
ENDCHAR
STARTCHAR P
ENCODING 80
SWIDTH 783 0
DWIDTH 9 0
BBX 11 8 0 0
BITMAP
001690
000124
000404
000414
000410
001000
400000
150000
ENDCHAR
STARTCHAR Q
ENCODING 81
SWIDTH 563 0
DWIDTH 7 0
BBX 8 10 1 -2
BITMAP
0BD0
2970
5014
4010
4000
4010
5180
0500
6E40
01BE
ENDCHAR
STARTCHAR R
ENCODING 82
SWIDTH 854 0
DWIDTH 10 0
BBX 10 8 0 0
BITMAP
001690
000420
000810
001400
001500
001200
404200
150090
ENDCHAR
STARTCHAR S
ENCODING 83
SWIDTH 480 0
DWIDTH 6 0
BBX 7 8 0 0
BITMAP
00A0
0104
0100
0040
0040
0010
4010
2540
ENDCHAR
STARTCHAR T
ENCODING 84
SWIDTH 577 0
DWIDTH 7 0
BBX 10 8 0 0
BITMAP
00BE90
010000
040000
000400
000400
001000
401000
254000
ENDCHAR
STARTCHAR U
ENCODING 85
SWIDTH 752 0
DWIDTH 9 0
BBX 9 8 1 0
BITMAP
154080
400140
000200
040600
040900
101800
149400
0F4900
ENDCHAR
STARTCHAR V
ENCODING 86
SWIDTH 661 0
DWIDTH 8 0
BBX 8 8 1 0
BITMAP
150A
4102
0041
0040
0040
0040
0100
0100
ENDCHAR
STARTCHAR W
ENCODING 87
SWIDTH 822 0
DWIDTH 10 0
BBX 9 8 2 0
BITMAP
640080
081040
049040
055040
055100
041400
042000
101000
ENDCHAR
STARTCHAR X
ENCODING 88
SWIDTH 813 0
DWIDTH 10 0
BBX 10 8 0 0
BITMAP
009060
002100
002400
001000
001400
000800
000910
6502C0
ENDCHAR
STARTCHAR Y
ENCODING 89
SWIDTH 662 0
DWIDTH 8 0
BBX 11 10 0 -2
BITMAP
005014
001020
001050
004080
004140
108600
40B400
800400
905000
2E4000
ENDCHAR
STARTCHAR Z
ENCODING 90
SWIDTH 625 0
DWIDTH 8 0
BBX 7 8 1 0
BITMAP
02FC
0400
0000
0000
0000
0000
0010
FF80
ENDCHAR
STARTCHAR bracketleft
ENCODING 91
SWIDTH 318 0
DWIDTH 4 0
BBX 4 8 1 -1
BITMAP
05
10
10
10
10
40
80
80
ENDCHAR
STARTCHAR backslash
ENCODING 92
SWIDTH 212 0
DWIDTH 3 0
BBX 2 7 0 0
BITMAP
40
40
00
10
10
10
10
ENDCHAR
STARTCHAR bracketright
ENCODING 93
SWIDTH 339 0
DWIDTH 4 0
BBX 4 8 1 -1
BITMAP
05
04
04
04
14
10
10
50
ENDCHAR
STARTCHAR asciicircum
ENCODING 94
SWIDTH 272 0
DWIDTH 3 0
BBX 2 3 1 2
BITMAP
10
A0
50
ENDCHAR
STARTCHAR underscore
ENCODING 95
SWIDTH 356 0
DWIDTH 4 0
BBX 4 1 0 -1
BITMAP
A9
ENDCHAR
STARTCHAR grave
ENCODING 96
SWIDTH 155 0
DWIDTH 2 0
BBX 1 1 0 4
BITMAP
40
ENDCHAR
STARTCHAR a
ENCODING 97
SWIDTH 294 0
DWIDTH 4 0
BBX 4 3 0 0
BITMAP
2D
54
44
ENDCHAR
STARTCHAR b
ENCODING 98
SWIDTH 247 0
DWIDTH 3 0
BBX 7 9 0 0
BITMAP
0054
0100
0400
0400
1000
1000
1800
4400
5000
ENDCHAR
STARTCHAR c
ENCODING 99
SWIDTH 203 0
DWIDTH 2 0
BBX 2 4 0 0
BITMAP
10
10
40
50
ENDCHAR
STARTCHAR d
ENCODING 100
SWIDTH 285 0
DWIDTH 3 0
BBX 8 9 0 0
BITMAP
0005
0000
0040
0000
0100
0100
1400
4800
5800
ENDCHAR
STARTCHAR e
ENCODING 101
SWIDTH 206 0
DWIDTH 2 0
BBX 3 3 0 0
BITMAP
14
40
50
ENDCHAR
STARTCHAR f
ENCODING 102
SWIDTH 156 0
DWIDTH 2 0
BBX 10 12 -4 -3
BITMAP
000060
000100
000400
000400
001400
001000
007800
001000
004000
004000
010000
500000
ENDCHAR
STARTCHAR g
ENCODING 103
SWIDTH 210 0
DWIDTH 3 0
BBX 5 6 -2 -3
BITMAP
0140
0500
0600
1100
5100
2E00
ENDCHAR
STARTCHAR h
ENCODING 104
SWIDTH 292 0
DWIDTH 4 0
BBX 7 9 0 0
BITMAP
0054
0000
0000
0400
0000
1000
1500
5400
4400
ENDCHAR
STARTCHAR i
ENCODING 105
SWIDTH 149 0
DWIDTH 2 0
BBX 2 3 0 0
BITMAP
10
40
40
ENDCHAR
STARTCHAR j
ENCODING 106
SWIDTH 136 0
DWIDTH 2 0
BBX 6 6 -4 -3
BITMAP
0010
0040
0040
0040
0000
5000
ENDCHAR
STARTCHAR k
ENCODING 107
SWIDTH 259 0
DWIDTH 3 0
BBX 7 9 0 0
BITMAP
0054
0100
0000
0400
1000
1000
1400
5000
5400
ENDCHAR
STARTCHAR l
ENCODING 108
SWIDTH 134 0
DWIDTH 2 0
BBX 6 10 0 -1
BITMAP
0050
0100
0400
0400
1000
1000
5000
4000
4000
1000
ENDCHAR
STARTCHAR m
ENCODING 109
SWIDTH 413 0
DWIDTH 5 0
BBX 5 4 0 -1
BITMAP
1440
5440
4540
0040
ENDCHAR
STARTCHAR n
ENCODING 110
SWIDTH 291 0
DWIDTH 3 0
BBX 4 3 0 0
BITMAP
55
54
44
ENDCHAR
STARTCHAR o
ENCODING 111
SWIDTH 225 0
DWIDTH 3 0
BBX 3 3 0 0
BITMAP
04
44
40
ENDCHAR
STARTCHAR p
ENCODING 112
SWIDTH 261 0
DWIDTH 3 0
BBX 4 6 -1 -3
BITMAP
01
12
2D
10
40
40
ENDCHAR
STARTCHAR q
ENCODING 113
SWIDTH 269 0
DWIDTH 3 0
BBX 4 6 0 -3
BITMAP
15
44
54
10
10
20
ENDCHAR
STARTCHAR r
ENCODING 114
SWIDTH 195 0
DWIDTH 2 0
BBX 2 3 0 0
BITMAP
10
10
40
ENDCHAR
STARTCHAR s
ENCODING 115
SWIDTH 188 0
DWIDTH 2 0
BBX 2 3 0 0
BITMAP
10
10
50
ENDCHAR
STARTCHAR t
ENCODING 116
SWIDTH 171 0
DWIDTH 2 0
BBX 3 4 0 0
BITMAP
10
34
50
50
ENDCHAR
STARTCHAR u
ENCODING 117
SWIDTH 299 0
DWIDTH 4 0
BBX 3 3 0 0
BITMAP
14
44
54
ENDCHAR
STARTCHAR v
ENCODING 118
SWIDTH 271 0
DWIDTH 3 0
BBX 3 3 0 0
BITMAP
14
18
60
ENDCHAR
STARTCHAR w
ENCODING 119
SWIDTH 369 0
DWIDTH 4 0
BBX 5 3 0 0
BITMAP
5540
1400
1400
ENDCHAR
STARTCHAR x
ENCODING 120
SWIDTH 263 0
DWIDTH 3 0
BBX 4 3 0 0
BITMAP
19
20
54
ENDCHAR
STARTCHAR y
ENCODING 121
SWIDTH 280 0
DWIDTH 3 0
BBX 6 6 -2 -3
BITMAP
0150
0480
0540
0100
4100
5400
ENDCHAR
STARTCHAR z
ENCODING 122
SWIDTH 238 0
DWIDTH 3 0
BBX 3 3 0 0
BITMAP
14
10
54
ENDCHAR
STARTCHAR braceleft
ENCODING 123
SWIDTH 291 0
DWIDTH 3 0
BBX 3 9 1 -1
BITMAP
04
10
10
10
40
50
40
40
80
ENDCHAR
STARTCHAR bar
ENCODING 124
SWIDTH 162 0
DWIDTH 2 0
BBX 1 11 1 -3
BITMAP
40
40
40
40
40
40
40
40
40
40
40
ENDCHAR
STARTCHAR braceright
ENCODING 125
SWIDTH 285 0
DWIDTH 3 0
BBX 3 9 1 -1
BITMAP
10
04
04
10
10
10
10
40
40
ENDCHAR
STARTCHAR asciitilde
ENCODING 126
SWIDTH 383 0
DWIDTH 5 0
BBX 3 2 1 1
BITMAP
A0
28
ENDCHAR
STARTCHAR space.dup1
ENCODING 160
SWIDTH 150 0
DWIDTH 2 0
BBX 1 1 0 0
BITMAP
00
ENDCHAR
STARTCHAR exclamdown
ENCODING 161
SWIDTH 189 0
DWIDTH 2 0
BBX 3 7 -1 -4
BITMAP
04
00
04
10
10
40
40
ENDCHAR
STARTCHAR cent
ENCODING 162
SWIDTH 194 0
DWIDTH 2 0
BBX 3 5 0 -1
BITMAP
14
50
50
90
40
ENDCHAR
STARTCHAR sterling
ENCODING 163
SWIDTH 344 0
DWIDTH 4 0
BBX 4 4 0 0
BITMAP
06
04
10
65
ENDCHAR
STARTCHAR currency
ENCODING 164
SWIDTH 344 0
DWIDTH 4 0
BBX 3 1 1 2
BITMAP
44
ENDCHAR
STARTCHAR yen
ENCODING 165
SWIDTH 309 0
DWIDTH 4 0
BBX 3 4 0 0
BITMAP
10
68
10
B4
ENDCHAR
STARTCHAR brokenbar
ENCODING 166
SWIDTH 162 0
DWIDTH 2 0
BBX 1 11 1 -3
BITMAP
40
40
40
40
00
00
00
40
40
40
40
ENDCHAR
STARTCHAR section
ENCODING 167
SWIDTH 395 0
DWIDTH 5 0
BBX 7 9 -1 -3
BITMAP
0154
0100
0500
0540
0140
0140
0140
4140
6500
ENDCHAR
STARTCHAR dieresis
ENCODING 168
SWIDTH 174 0
DWIDTH 2 0
BBX 2 1 0 4
BITMAP
50
ENDCHAR
STARTCHAR copyright
ENCODING 169
SWIDTH 331 0
DWIDTH 4 0
BBX 4 4 0 1
BITMAP
04
11
41
14
ENDCHAR
STARTCHAR ordfeminine
ENCODING 170
SWIDTH 226 0
DWIDTH 3 0
BBX 2 2 0 2
BITMAP
50
10
ENDCHAR
STARTCHAR guillemotleft
ENCODING 171
SWIDTH 289 0
DWIDTH 3 0
BBX 4 3 0 0
BITMAP
15
64
1C
ENDCHAR
STARTCHAR logicalnot
ENCODING 172
SWIDTH 265 0
DWIDTH 3 0
BBX 3 2 0 2
BITMAP
B8
04
ENDCHAR
STARTCHAR registered
ENCODING 174
SWIDTH 331 0
DWIDTH 4 0
BBX 4 3 0 1
BITMAP
04
55
28
ENDCHAR
STARTCHAR degree
ENCODING 176
SWIDTH 104 0
DWIDTH 1 0
BBX 1 2 1 3
BITMAP
80
80
ENDCHAR
STARTCHAR plusminus
ENCODING 177
SWIDTH 301 0
DWIDTH 4 0
BBX 4 3 0 0
BITMAP
04
7D
60
ENDCHAR
STARTCHAR twosuperior
ENCODING 178
SWIDTH 215 0
DWIDTH 3 0
BBX 2 2 1 2
BITMAP
50
40
ENDCHAR
STARTCHAR threesuperior
ENCODING 179
SWIDTH 190 0
DWIDTH 2 0
BBX 1 2 1 2
BITMAP
40
40
ENDCHAR
STARTCHAR acute
ENCODING 180
SWIDTH 157 0
DWIDTH 2 0
BBX 2 2 0 3
BITMAP
10
40
ENDCHAR
STARTCHAR mu
ENCODING 181
SWIDTH 324 0
DWIDTH 4 0
BBX 4 5 0 -2
BITMAP
11
18
65
40
40
ENDCHAR
STARTCHAR paragraph
ENCODING 182
SWIDTH 392 0
DWIDTH 5 0
BBX 6 7 -1 -3
BITMAP
0160
0B50
0F40
0640
0140
4500
9400
ENDCHAR
STARTCHAR periodcentered
ENCODING 183
SWIDTH 112 0
DWIDTH 1 0
BBX 1 1 0 1
BITMAP
40
ENDCHAR
STARTCHAR cedilla
ENCODING 184
SWIDTH 115 0
DWIDTH 1 0
BBX 1 1 0 -1
BITMAP
40
ENDCHAR
STARTCHAR onesuperior
ENCODING 185
SWIDTH 174 0
DWIDTH 2 0
BBX 2 1 0 3
BITMAP
60
ENDCHAR
STARTCHAR ordmasculine
ENCODING 186
SWIDTH 178 0
DWIDTH 2 0
BBX 2 2 0 2
BITMAP
50
10
ENDCHAR
STARTCHAR guillemotright
ENCODING 187
SWIDTH 276 0
DWIDTH 3 0
BBX 3 3 0 0
BITMAP
54
14
50
ENDCHAR
STARTCHAR onequarter
ENCODING 188
SWIDTH 435 0
DWIDTH 5 0
BBX 4 4 1 0
BITMAP
41
44
55
49
ENDCHAR
STARTCHAR onehalf
ENCODING 189
SWIDTH 434 0
DWIDTH 5 0
BBX 4 4 1 0
BITMAP
41
45
51
45
ENDCHAR
STARTCHAR threequarters
ENCODING 190
SWIDTH 476 0
DWIDTH 6 0
BBX 4 4 1 0
BITMAP
51
54
51
01
ENDCHAR
STARTCHAR questiondown
ENCODING 191
SWIDTH 285 0
DWIDTH 3 0
BBX 5 7 -1 -4
BITMAP
0140
0000
0100
1400
4000
5400
1000
ENDCHAR
STARTCHAR Agrave
ENCODING 192
SWIDTH 996 0
DWIDTH 12 0
BBX 12 9 0 0
BITMAP
000005
000155
000006
000014
000044
000BF4
000104
401004
254009
ENDCHAR
STARTCHAR Aacute
ENCODING 193
SWIDTH 996 0
DWIDTH 12 0
BBX 12 9 0 0
BITMAP
000001
000155
000006
000014
000044
000BF4
000104
401004
254009
ENDCHAR
STARTCHAR Acircumflex
ENCODING 194
SWIDTH 996 0
DWIDTH 12 0
BBX 13 10 0 0
BITMAP
00000240
00000000
00015500
00000600
00001400
00004400
000BF400
00010400
40100400
25400900
ENDCHAR
STARTCHAR Atilde
ENCODING 195
SWIDTH 996 0
DWIDTH 12 0
BBX 13 9 0 0
BITMAP
00000640
00015500
00000600
00001400
00004400
000BF400
00010400
40100400
25400900
ENDCHAR
STARTCHAR Adieresis
ENCODING 196
SWIDTH 996 0
DWIDTH 12 0
BBX 13 9 0 0
BITMAP
00000140
00015500
00000600
00001400
00004400
000BF400
00010400
40100400
25400900
ENDCHAR
STARTCHAR Aring
ENCODING 197
SWIDTH 996 0
DWIDTH 12 0
BBX 12 10 0 0
BITMAP
000001
000000
000155
000006
000014
000044
000BF4
000104
401004
254009
ENDCHAR
STARTCHAR AE
ENCODING 198
SWIDTH 1271 0
DWIDTH 15 0
BBX 16 8 0 0
BITMAP
00015515
00000640
00001550
00004540
000BFC00
00010400
40140804
29400554
ENDCHAR
STARTCHAR Ccedilla
ENCODING 199
SWIDTH 557 0
DWIDTH 7 0
BBX 7 9 1 -1
BITMAP
0054
1000
4000
4000
4000
8010
A040
1900
0400
ENDCHAR
STARTCHAR Egrave
ENCODING 200
SWIDTH 463 0
DWIDTH 6 0
BBX 6 9 0 0
BITMAP
0040
0160
0400
0500
1F00
6000
8000
8000
1540
ENDCHAR
STARTCHAR Eacute
ENCODING 201
SWIDTH 463 0
DWIDTH 6 0
BBX 6 9 0 0
BITMAP
0050
0160
0400
0500
1F00
6000
8000
8000
1540
ENDCHAR
STARTCHAR Ecircumflex
ENCODING 202
SWIDTH 463 0
DWIDTH 6 0
BBX 6 10 0 0
BITMAP
0090
0000
0160
0400
0500
1F00
6000
8000
8000
1540
ENDCHAR
STARTCHAR Edieresis
ENCODING 203
SWIDTH 463 0
DWIDTH 6 0
BBX 6 9 0 0
BITMAP
0050
0160
0400
0500
1F00
6000
8000
8000
1540
ENDCHAR
STARTCHAR Igrave
ENCODING 204
SWIDTH 514 0
DWIDTH 6 0
BBX 8 8 0 0
BITMAP
000A
0024
0044
0004
0010
4050
8180
7E00
ENDCHAR
STARTCHAR Iacute
ENCODING 205
SWIDTH 514 0
DWIDTH 6 0
BBX 8 10 0 0
BITMAP
0005
0000
000A
0024
0044
0004
0010
4050
8180
7E00
ENDCHAR
STARTCHAR Icircumflex
ENCODING 206
SWIDTH 514 0
DWIDTH 6 0
BBX 8 10 0 0
BITMAP
0006
0000
000A
0024
0044
0004
0010
4050
8180
7E00
ENDCHAR
STARTCHAR Idieresis
ENCODING 207
SWIDTH 514 0
DWIDTH 6 0
BBX 8 9 0 0
BITMAP
0005
000A
0024
0044
0004
0010
4050
8180
7E00
ENDCHAR
STARTCHAR Eth
ENCODING 208
SWIDTH 800 0
DWIDTH 10 0
BBX 10 8 0 0
BITMAP
015900
000500
001040
001050
02F810
004010
004000
550140
ENDCHAR
STARTCHAR Ntilde
ENCODING 209
SWIDTH 796 0
DWIDTH 10 0
BBX 15 9 -2 0
BITMAP
00001900
00590018
00020040
00018000
00045100
00042100
40001400
40100800
29400400
ENDCHAR
STARTCHAR Ograve
ENCODING 210
SWIDTH 608 0
DWIDTH 7 0
BBX 7 8 1 0
BITMAP
07E0
2428
4008
4004
4004
8010
9050
2E40
ENDCHAR
STARTCHAR Oacute
ENCODING 211
SWIDTH 608 0
DWIDTH 7 0
BBX 7 10 1 0
BITMAP
0040
0000
07E0
2428
4008
4004
4004
8010
9050
2E40
ENDCHAR
STARTCHAR Ocircumflex
ENCODING 212
SWIDTH 608 0
DWIDTH 7 0
BBX 7 10 1 0
BITMAP
0040
0000
07E0
2428
4008
4004
4004
8010
9050
2E40
ENDCHAR
STARTCHAR Otilde
ENCODING 213
SWIDTH 608 0
DWIDTH 7 0
BBX 7 9 1 0
BITMAP
0140
07E0
2428
4008
4004
4004
8010
9050
2E40
ENDCHAR
STARTCHAR Odieresis
ENCODING 214
SWIDTH 608 0
DWIDTH 7 0
BBX 7 10 1 0
BITMAP
0040
0000
07E0
2428
4008
4004
4004
8010
9050
2E40
ENDCHAR
STARTCHAR multiply
ENCODING 215
SWIDTH 301 0
DWIDTH 4 0
BBX 2 3 1 0
BITMAP
50
10
10
ENDCHAR
STARTCHAR Oslash
ENCODING 216
SWIDTH 605 0
DWIDTH 7 0
BBX 7 8 1 0
BITMAP
07C0
2440
5044
8108
4408
5424
4090
6E40
ENDCHAR
STARTCHAR Ugrave
ENCODING 217
SWIDTH 717 0
DWIDTH 9 0
BBX 10 9 0 0
BITMAP
000500
058010
000040
010040
400200
040600
040500
086100
078240
ENDCHAR
STARTCHAR Uacute
ENCODING 218
SWIDTH 717 0
DWIDTH 9 0
BBX 10 9 0 0
BITMAP
000100
058010
000040
010040
400200
040600
040500
086100
078240
ENDCHAR
STARTCHAR Ucircumflex
ENCODING 219
SWIDTH 718 0
DWIDTH 9 0
BBX 10 9 0 0
BITMAP
000100
058010
000040
010040
400200
040600
040900
086100
078240
ENDCHAR
STARTCHAR Udieresis
ENCODING 220
SWIDTH 718 0
DWIDTH 9 0
BBX 10 9 0 0
BITMAP
000500
058010
000040
010040
400200
040600
040500
086100
078240
ENDCHAR
STARTCHAR Yacute
ENCODING 221
SWIDTH 662 0
DWIDTH 8 0
BBX 11 11 0 -2
BITMAP
000040
005014
001020
001050
004080
004140
108600
40B400
800400
905000
2E4000
ENDCHAR
STARTCHAR Thorn
ENCODING 222
SWIDTH 745 0
DWIDTH 9 0
BBX 10 8 0 0
BITMAP
000040
000100
001780
000990
000810
001440
401A00
154000
ENDCHAR
STARTCHAR germandbls
ENCODING 223
SWIDTH 304 0
DWIDTH 4 0
BBX 11 12 -4 -3
BITMAP
000190
000114
000420
000190
000600
001800
000000
004400
005C00
000000
000000
500000
ENDCHAR
STARTCHAR agrave
ENCODING 224
SWIDTH 294 0
DWIDTH 4 0
BBX 4 5 0 0
BITMAP
04
00
2D
54
44
ENDCHAR
STARTCHAR aacute
ENCODING 225
SWIDTH 294 0
DWIDTH 4 0
BBX 4 5 0 0
BITMAP
05
04
2D
54
44
ENDCHAR
STARTCHAR acircumflex
ENCODING 226
SWIDTH 294 0
DWIDTH 4 0
BBX 4 6 0 0
BITMAP
04
00
00
2D
54
44
ENDCHAR
STARTCHAR atilde
ENCODING 227
SWIDTH 294 0
DWIDTH 4 0
BBX 4 5 0 0
BITMAP
15
19
2D
54
44
ENDCHAR
STARTCHAR adieresis
ENCODING 228
SWIDTH 284 0
DWIDTH 3 0
BBX 4 5 0 0
BITMAP
04
00
2D
54
44
ENDCHAR
STARTCHAR aring
ENCODING 229
SWIDTH 294 0
DWIDTH 4 0
BBX 4 5 0 0
BITMAP
04
08
2D
54
44
ENDCHAR
STARTCHAR ae
ENCODING 230
SWIDTH 363 0
DWIDTH 4 0
BBX 5 4 0 0
BITMAP
0100
0540
4800
5500
ENDCHAR
STARTCHAR ccedilla
ENCODING 231
SWIDTH 203 0
DWIDTH 2 0
BBX 2 4 0 0
BITMAP
10
10
40
50
ENDCHAR
STARTCHAR egrave
ENCODING 232
SWIDTH 206 0
DWIDTH 2 0
BBX 3 5 0 0
BITMAP
10
00
14
40
50
ENDCHAR
STARTCHAR eacute
ENCODING 233
SWIDTH 206 0
DWIDTH 2 0
BBX 3 5 0 0
BITMAP
08
04
14
40
50
ENDCHAR
STARTCHAR ecircumflex
ENCODING 234
SWIDTH 206 0
DWIDTH 2 0
BBX 3 5 0 0
BITMAP
04
00
14
40
50
ENDCHAR
STARTCHAR edieresis
ENCODING 235
SWIDTH 206 0
DWIDTH 2 0
BBX 3 5 0 0
BITMAP
14
00
14
40
50
ENDCHAR
STARTCHAR igrave
ENCODING 236
SWIDTH 149 0
DWIDTH 2 0
BBX 2 5 0 0
BITMAP
10
00
10
40
40
ENDCHAR
STARTCHAR iacute
ENCODING 237
SWIDTH 149 0
DWIDTH 2 0
BBX 3 5 0 0
BITMAP
08
10
10
40
40
ENDCHAR
STARTCHAR icircumflex
ENCODING 238
SWIDTH 149 0
DWIDTH 2 0
BBX 2 6 0 0
BITMAP
10
00
00
10
40
40
ENDCHAR
STARTCHAR idieresis
ENCODING 239
SWIDTH 149 0
DWIDTH 2 0
BBX 3 5 0 0
BITMAP
14
00
10
40
40
ENDCHAR
STARTCHAR eth
ENCODING 240
SWIDTH 234 0
DWIDTH 3 0
BBX 3 8 0 0
BITMAP
40
40
20
04
04
04
44
50
ENDCHAR
STARTCHAR ntilde
ENCODING 241
SWIDTH 291 0
DWIDTH 3 0
BBX 4 5 0 0
BITMAP
15
19
55
54
44
ENDCHAR
STARTCHAR ograve
ENCODING 242
SWIDTH 225 0
DWIDTH 3 0
BBX 3 5 0 0
BITMAP
04
00
04
44
40
ENDCHAR
STARTCHAR oacute
ENCODING 243
SWIDTH 225 0
DWIDTH 3 0
BBX 3 5 0 0
BITMAP
08
04
04
44
40
ENDCHAR
STARTCHAR ocircumflex
ENCODING 244
SWIDTH 225 0
DWIDTH 3 0
BBX 3 6 0 0
BITMAP
04
04
00
04
44
40
ENDCHAR
STARTCHAR otilde
ENCODING 245
SWIDTH 225 0
DWIDTH 3 0
BBX 3 5 0 0
BITMAP
24
18
04
44
40
ENDCHAR
STARTCHAR odieresis
ENCODING 246
SWIDTH 225 0
DWIDTH 3 0
BBX 3 5 0 0
BITMAP
14
00
04
44
40
ENDCHAR
STARTCHAR divide
ENCODING 247
SWIDTH 301 0
DWIDTH 4 0
BBX 2 1 1 1
BITMAP
50
ENDCHAR
STARTCHAR oslash
ENCODING 248
SWIDTH 225 0
DWIDTH 3 0
BBX 3 3 0 0
BITMAP
14
54
90
ENDCHAR
STARTCHAR ugrave
ENCODING 249
SWIDTH 299 0
DWIDTH 4 0
BBX 3 5 0 0
BITMAP
04
00
14
44
54
ENDCHAR
STARTCHAR uacute
ENCODING 250
SWIDTH 299 0
DWIDTH 4 0
BBX 4 5 0 0
BITMAP
01
04
14
44
54
ENDCHAR
STARTCHAR ucircumflex
ENCODING 251
SWIDTH 299 0
DWIDTH 4 0
BBX 3 6 0 0
BITMAP
04
00
00
14
44
54
ENDCHAR
STARTCHAR udieresis
ENCODING 252
SWIDTH 299 0
DWIDTH 4 0
BBX 4 5 0 0
BITMAP
05
00
14
44
54
ENDCHAR
STARTCHAR yacute
ENCODING 253
SWIDTH 280 0
DWIDTH 3 0
BBX 6 8 -2 -3
BITMAP
0010
0040
0150
0480
0540
0100
4100
5400
ENDCHAR
STARTCHAR thorn
ENCODING 254
SWIDTH 261 0
DWIDTH 3 0
BBX 4 9 -1 -3
BITMAP
01
01
04
01
02
2D
10
40
50
ENDCHAR
STARTCHAR ydieresis
ENCODING 255
SWIDTH 280 0
DWIDTH 3 0
BBX 6 8 -2 -3
BITMAP
0050
0000
0150
0480
0540
0100
4100
5400
ENDCHAR
STARTCHAR dotlessi
ENCODING 305
SWIDTH 149 0
DWIDTH 2 0
BBX 2 3 0 0
BITMAP
10
40
40
ENDCHAR
STARTCHAR Lslash
ENCODING 321
SWIDTH 657 0
DWIDTH 8 0
BBX 9 8 0 0
BITMAP
000740
001440
001000
00A000
008000
154000
474100
79B800
ENDCHAR
STARTCHAR lslash
ENCODING 322
SWIDTH 134 0
DWIDTH 2 0
BBX 6 10 0 -1
BITMAP
0050
0100
0400
0400
1000
1000
5000
4000
4000
1000
ENDCHAR
STARTCHAR OE
ENCODING 338
SWIDTH 827 0
DWIDTH 10 0
BBX 10 8 1 0
BITMAP
07E550
242400
400800
402D00
409000
814000
904000
6E9500
ENDCHAR
STARTCHAR oe
ENCODING 339
SWIDTH 345 0
DWIDTH 4 0
BBX 4 3 0 0
BITMAP
15
44
59
ENDCHAR
STARTCHAR Scaron
ENCODING 352
SWIDTH 480 0
DWIDTH 6 0
BBX 7 10 0 0
BITMAP
0050
0000
00A0
0104
0100
0040
0040
0010
4010
2540
ENDCHAR
STARTCHAR scaron
ENCODING 353
SWIDTH 188 0
DWIDTH 2 0
BBX 2 5 0 0
BITMAP
10
00
10
10
50
ENDCHAR
STARTCHAR Ydieresis
ENCODING 376
SWIDTH 662 0
DWIDTH 8 0
BBX 11 11 0 -2
BITMAP
000140
005014
001020
001050
004080
004140
108600
40B400
800400
905000
2E4000
ENDCHAR
STARTCHAR Zcaron
ENCODING 381
SWIDTH 625 0
DWIDTH 8 0
BBX 7 10 1 0
BITMAP
0050
0000
02FC
0400
0000
0000
0000
0000
0010
FF80
ENDCHAR
STARTCHAR zcaron
ENCODING 382
SWIDTH 248 0
DWIDTH 3 0
BBX 3 3 0 0
BITMAP
14
10
54
ENDCHAR
STARTCHAR florin
ENCODING 402
SWIDTH 214 0
DWIDTH 3 0
BBX 4 5 -1 -1
BITMAP
07
04
1D
10
50
ENDCHAR
STARTCHAR circumflex
ENCODING 710
SWIDTH 196 0
DWIDTH 2 0
BBX 1 2 1 4
BITMAP
40
40
ENDCHAR
STARTCHAR caron
ENCODING 711
SWIDTH 196 0
DWIDTH 2 0
BBX 1 1 0 4
BITMAP
40
ENDCHAR
STARTCHAR breve
ENCODING 728
SWIDTH 198 0
DWIDTH 2 0
BBX 1 1 2 4
BITMAP
00
ENDCHAR
STARTCHAR dotaccent
ENCODING 729
SWIDTH 89 0
DWIDTH 1 0
BBX 1 1 0 4
BITMAP
40
ENDCHAR
STARTCHAR ring
ENCODING 730
SWIDTH 117 0
DWIDTH 1 0
BBX 1 2 0 3
BITMAP
40
80
ENDCHAR
STARTCHAR ogonek
ENCODING 731
SWIDTH 124 0
DWIDTH 1 0
BBX 1 2 0 -2
BITMAP
40
40
ENDCHAR
STARTCHAR tilde
ENCODING 732
SWIDTH 222 0
DWIDTH 3 0
BBX 3 2 0 3
BITMAP
54
60
ENDCHAR
STARTCHAR hungarumlaut
ENCODING 733
SWIDTH 253 0
DWIDTH 3 0
BBX 3 2 0 3
BITMAP
28
50
ENDCHAR
STARTCHAR mu.dup2
ENCODING 956
SWIDTH 324 0
DWIDTH 4 0
BBX 4 5 0 -2
BITMAP
11
18
65
40
40
ENDCHAR
STARTCHAR endash
ENCODING 8211
SWIDTH 500 0
DWIDTH 6 0
BBX 6 1 0 1
BITMAP
BFE0
ENDCHAR
STARTCHAR emdash
ENCODING 8212
SWIDTH 1000 0
DWIDTH 12 0
BBX 12 1 0 1
BITMAP
BFFFFE
ENDCHAR
STARTCHAR quoteleft
ENCODING 8216
SWIDTH 87 0
DWIDTH 1 0
BBX 2 2 0 3
BITMAP
10
40
ENDCHAR
STARTCHAR quoteright
ENCODING 8217
SWIDTH 87 0
DWIDTH 1 0
BBX 1 1 1 4
BITMAP
40
ENDCHAR
STARTCHAR quotesinglbase
ENCODING 8218
SWIDTH 112 0
DWIDTH 1 0
BBX 1 1 0 0
BITMAP
40
ENDCHAR
STARTCHAR quotedblleft
ENCODING 8220
SWIDTH 167 0
DWIDTH 2 0
BBX 2 2 0 3
BITMAP
10
50
ENDCHAR
STARTCHAR quotedblright
ENCODING 8221
SWIDTH 167 0
DWIDTH 2 0
BBX 2 2 1 3
BITMAP
50
40
ENDCHAR
STARTCHAR quotedblbase
ENCODING 8222
SWIDTH 192 0
DWIDTH 2 0
BBX 2 2 0 -1
BITMAP
50
50
ENDCHAR
STARTCHAR dagger
ENCODING 8224
SWIDTH 185 0
DWIDTH 2 0
BBX 3 7 0 -1
BITMAP
04
10
78
10
00
40
40
ENDCHAR
STARTCHAR daggerdbl
ENCODING 8225
SWIDTH 185 0
DWIDTH 2 0
BBX 4 6 -1 0
BITMAP
01
04
1E
04
78
10
ENDCHAR
STARTCHAR bullet
ENCODING 8226
SWIDTH 207 0
DWIDTH 2 0
BBX 2 1 0 1
BITMAP
60
ENDCHAR
STARTCHAR ellipsis
ENCODING 8230
SWIDTH 376 0
DWIDTH 5 0
BBX 1 1 4 0
BITMAP
00
ENDCHAR
STARTCHAR perthousand
ENCODING 8240
SWIDTH 571 0
DWIDTH 7 0
BBX 7 5 0 -1
BITMAP
6100
4500
0554
1550
4000
ENDCHAR
STARTCHAR guilsinglleft
ENCODING 8249
SWIDTH 189 0
DWIDTH 2 0
BBX 2 3 0 0
BITMAP
10
40
10
ENDCHAR
STARTCHAR guilsinglright
ENCODING 8250
SWIDTH 176 0
DWIDTH 2 0
BBX 2 3 0 0
BITMAP
50
10
40
ENDCHAR
STARTCHAR fraction
ENCODING 8260
SWIDTH 220 0
DWIDTH 3 0
BBX 4 4 0 0
BITMAP
01
04
10
40
ENDCHAR
STARTCHAR Euro
ENCODING 8364
SWIDTH 360 0
DWIDTH 4 0
BBX 4 4 0 0
BITMAP
11
B8
40
54
ENDCHAR
STARTCHAR trademark
ENCODING 8482
SWIDTH 389 0
DWIDTH 5 0
BBX 3 2 1 2
BITMAP
44
54
ENDCHAR
STARTCHAR minus
ENCODING 8722
SWIDTH 301 0
DWIDTH 4 0
BBX 4 1 0 1
BITMAP
7D
ENDCHAR
STARTCHAR fi
ENCODING 64257
SWIDTH 297 0
DWIDTH 4 0
BBX 10 12 -4 -3
BITMAP
000060
000100
000400
000400
001500
001000
007D00
001000
004400
004000
010000
500000
ENDCHAR
STARTCHAR fl
ENCODING 64258
SWIDTH 290 0
DWIDTH 3 0
BBX 12 12 -4 -3
BITMAP
000055
000100
000400
000400
001500
001100
007C00
001400
004800
004000
010000
500000
ENDCHAR
STARTCHAR .notdef
ENCODING -1
SWIDTH 150 0
DWIDTH 2 0
BBX 1 1 0 0
BITMAP
00
ENDCHAR
STARTCHAR .null
ENCODING -1
SWIDTH 0 0
DWIDTH 0 0
BBX 1 1 0 0
BITMAP
00
ENDCHAR
STARTCHAR nonmarkingreturn
ENCODING -1
SWIDTH 150 0
DWIDTH 2 0
BBX 1 1 0 0
BITMAP
00
ENDCHAR
ENDFONT
